<?xml version="1.0" standalone="no"?>
<!DOCTYPE svg PUBLIC "-//W3C//DTD SVG 20010904//EN"
 "http://www.w3.org/TR/2001/REC-SVG-20010904/DTD/svg10.dtd">
<svg version="1.0" xmlns="http://www.w3.org/2000/svg"
 width="1110.000000pt" height="1110.000000pt" viewBox="0 0 1110.000000 1110.000000"
 preserveAspectRatio="xMidYMid meet">
<metadata>
Created by potrace 1.14, written by Peter Selinger 2001-2017
</metadata>
<g transform="translate(0.000000,1110.000000) scale(0.100000,-0.100000)"
fill="#000000" stroke="none">
<path d="M5300 9949 c-596 -52 -1115 -195 -1645 -454 -583 -285 -1122 -703
-1514 -1173 -34 -40 -61 -70 -61 -66 0 13 54 78 135 164 90 95 140 158 133
165 -6 6 -145 -152 -266 -304 -396 -494 -680 -1065 -830 -1667 -23 -88 -43
-189 -47 -225 -4 -35 -21 -138 -40 -229 -18 -91 -36 -196 -40 -235 -4 -38 -11
-97 -16 -130 -12 -79 -11 -86 7 -50 13 28 14 20 9 -90 -3 -66 -10 -140 -16
-165 -14 -57 -3 -276 17 -356 9 -33 17 -106 18 -164 3 -121 16 -231 25 -226 4
3 6 -12 4 -32 -2 -31 -1 -33 6 -12 7 22 8 20 15 -21 3 -25 4 -52 1 -60 -10
-27 53 -273 147 -568 29 -90 54 -158 56 -152 6 17 22 2 22 -20 0 -11 24 -73
54 -137 29 -64 59 -134 66 -156 7 -21 32 -72 56 -113 25 -41 67 -119 94 -172
27 -54 60 -111 74 -128 14 -17 44 -63 67 -104 153 -271 523 -716 811 -977 827
-747 1867 -1151 2969 -1152 394 0 728 41 1114 136 265 65 657 209 791 290 33
20 96 51 142 69 134 54 224 110 628 387 136 93 393 321 439 389 16 24 77 94
135 154 112 117 194 220 279 350 29 44 70 98 91 120 38 40 181 246 235 339 27
47 27 48 6 36 -13 -6 -25 -9 -28 -6 -4 3 18 56 47 118 208 443 342 908 402
1398 15 121 16 568 1 645 -7 41 -10 10 -16 -170 -14 -503 -107 -980 -273
-1408 -67 -172 -146 -336 -220 -452 -31 -50 -71 -121 -90 -158 -47 -92 -183
-293 -281 -413 -165 -203 -476 -515 -696 -697 -130 -108 -413 -294 -559 -368
-65 -33 -43 -17 77 56 325 197 664 483 860 725 11 14 -27 -20 -85 -75 -355
-337 -554 -487 -865 -651 -49 -26 -104 -59 -121 -74 -44 -38 -124 -82 -237
-130 -108 -46 -268 -103 -273 -97 -2 1 38 20 89 42 107 44 330 155 324 161 -2
2 -44 -14 -93 -37 -243 -113 -590 -234 -859 -299 -352 -86 -601 -114 -940
-106 -343 8 -386 23 -70 25 386 2 719 32 844 76 36 13 127 38 201 55 493 118
1033 361 1440 650 107 76 324 253 350 286 8 10 -23 -13 -70 -52 -244 -203
-540 -399 -745 -495 -45 -21 -86 -39 -91 -39 -4 0 55 36 132 81 156 91 361
224 471 305 96 71 233 192 233 206 0 6 -21 -9 -47 -33 -120 -112 -378 -287
-619 -420 -227 -126 -561 -276 -590 -265 -18 7 -116 -23 -129 -40 -20 -26
-512 -143 -755 -178 -275 -40 -585 -49 -715 -20 -38 8 -146 19 -240 24 -341
17 -651 104 -1180 330 -330 141 -402 183 -690 403 -382 292 -652 539 -851 780
-488 591 -801 1373 -880 2197 -22 232 -15 645 15 865 106 782 401 1462 903
2080 26 33 68 85 92 115 24 30 49 54 56 52 7 -2 28 12 47 29 24 24 31 39 27
53 -5 15 18 44 115 137 648 630 1572 1038 2488 1099 126 8 159 14 195 32 39
21 54 23 168 20 69 -1 138 -5 154 -8 21 -5 27 -3 21 7 -6 9 -3 11 9 6 10 -4
36 -7 57 -7 24 0 38 -4 34 -10 -7 -12 18 -17 115 -24 41 -3 142 -17 224 -31
144 -24 227 -32 161 -15 -30 8 -30 8 8 9 20 0 37 6 37 12 0 15 41 5 205 -49
76 -25 133 -48 125 -50 -7 -3 18 -17 56 -33 103 -42 65 -35 -86 16 -74 25
-139 45 -145 44 -5 0 64 -26 155 -58 188 -66 401 -149 509 -198 87 -39 104
-42 41 -7 -25 14 -36 22 -25 19 11 -4 43 -13 72 -20 28 -7 61 -19 72 -25 12
-6 21 -7 21 -3 0 4 6 -1 13 -12 9 -11 19 -15 27 -10 8 5 11 4 7 -1 -3 -5 13
-20 36 -32 40 -22 41 -22 17 -2 -33 28 87 -37 210 -114 496 -310 912 -715
1230 -1196 91 -138 108 -160 65 -85 -114 204 -310 463 -511 675 -160 169 -175
193 -28 45 136 -137 288 -315 416 -490 49 -66 97 -129 107 -140 13 -15 75
-117 107 -176 8 -15 -38 0 -51 17 -25 31 75 -168 102 -204 43 -57 38 -26 -7
43 -34 52 -41 70 -34 86 8 18 21 -2 81 -127 112 -233 213 -499 298 -786 21
-70 41 -125 46 -123 13 8 16 -3 48 -165 47 -235 73 -445 80 -665 6 -187 7
-195 15 -120 20 183 -11 546 -70 830 -86 412 -294 993 -394 1100 -15 17 -33
48 -40 70 -21 65 -63 143 -150 275 -173 261 -359 488 -581 707 -207 204 -289
271 -654 541 -74 54 -193 125 -350 208 -738 388 -1662 546 -2544 434 -278 -36
-377 -58 -463 -103 -43 -22 -76 -42 -75 -44 2 -1 47 8 100 21 52 13 127 30
166 37 39 7 71 16 71 21 0 4 -6 9 -12 9 -7 1 14 5 47 9 63 8 79 5 55 -10 -24
-16 -2 -13 140 16 24 5 24 5 5 -9 -11 -8 -51 -17 -88 -21 -181 -18 -420 -71
-638 -142 -483 -157 -961 -417 -1362 -742 -469 -380 -570 -489 -872 -937 -146
-216 -164 -239 -110 -140 99 184 280 429 472 639 211 232 641 613 753 669 30
15 105 62 165 105 61 43 126 84 145 92 19 7 105 48 190 90 169 85 234 113 475
201 88 32 151 58 140 59 -14 0 -8 7 20 20 l40 20 -35 -6 c-40 -7 -330 -112
-345 -125 -5 -6 -1 -9 10 -10 15 0 13 -4 -10 -14 -16 -7 -36 -10 -44 -5 -8 4
-33 -1 -60 -13 -87 -38 -346 -165 -418 -206 -112 -62 -87 -40 38 34 480 285
1005 463 1594 542 165 22 768 25 940 5 297 -34 587 -93 832 -168 285 -86 446
-151 773 -312 358 -176 616 -363 957 -694 84 -82 158 -148 166 -148 18 0 82
-67 67 -72 -7 -2 -4 -13 10 -30 11 -15 26 -25 33 -22 7 2 24 -8 37 -22 20 -21
21 -26 7 -21 -10 4 12 -24 49 -61 191 -193 374 -470 558 -847 45 -93 88 -185
96 -203 7 -18 15 -31 17 -29 2 3 -5 28 -16 58 -11 29 -19 54 -17 56 6 6 101
-232 140 -350 20 -59 49 -155 65 -215 17 -59 35 -127 42 -152 l13 -45 7 45 c6
35 3 63 -16 125 -13 44 -34 114 -45 155 -12 41 -36 107 -54 145 -19 39 -39 93
-45 120 -49 202 -331 738 -552 1046 -223 312 -516 616 -837 866 -219 172 -540
372 -782 486 -58 27 -123 64 -145 82 -24 20 -98 55 -185 88 -345 131 -696 215
-1100 263 -160 19 -701 27 -860 13z m265 -239 c-143 -4 -241 -11 -258 -18 -16
-7 -47 -11 -70 -11 -23 1 -33 3 -22 6 11 2 29 8 40 13 29 14 85 17 325 16
l215 0 -230 -6z m-72 -17 c-13 -2 -33 -2 -45 0 -13 2 -3 4 22 4 25 0 35 -2 23
-4z m54 1 c-3 -3 -12 -4 -19 -1 -8 3 -5 6 6 6 11 1 17 -2 13 -5z m1344 -20
c30 -9 58 -20 64 -25 9 -9 -73 13 -118 31 -36 15 -4 11 54 -6z m-2078 -11 c-7
-2 -19 -2 -25 0 -7 3 -2 5 12 5 14 0 19 -2 13 -5z m782 -53 c14 -6 -2 -9 -52
-9 -39 -1 -75 4 -78 9 -8 12 101 12 130 0z m325 -10 c58 -7 53 -8 -49 -6 -83
1 -116 5 -119 14 -4 13 11 12 168 -8z m133 -17 c-13 -2 -33 -2 -45 0 -13 2 -3
4 22 4 25 0 35 -2 23 -4z m267 -7 l65 -14 -95 1 c-52 0 -79 2 -60 5 33 5 34 5
10 12 -43 14 8 11 80 -4z m-162 -3 c-10 -2 -28 -2 -40 0 -13 2 -5 4 17 4 22 1
32 -1 23 -4z m647 -33 c11 -5 14 -9 7 -9 -7 -1 -10 -5 -7 -11 8 -14 -21 -13
-48 2 -21 11 -21 11 -2 19 25 9 26 9 50 -1z m165 -132 c10 -6 7 -7 -10 -2 -14
3 -32 11 -40 16 -10 6 -7 7 10 2 14 -3 32 -11 40 -16z m99 -33 c29 -9 62 -26
72 -36 11 -11 18 -19 17 -19 -12 0 -155 64 -163 72 -7 8 -5 9 5 6 8 -3 39 -13
69 -23z m191 -69 c0 -2 -7 -7 -16 -10 -8 -3 -12 -2 -9 4 6 10 25 14 25 6z m14
-18 c-5 -8 -1 -9 12 -4 14 5 16 4 8 -4 -6 -6 -19 -8 -28 -4 -14 5 -15 9 -4 15
18 12 20 11 12 -3z m124 -59 c29 -12 50 -24 48 -26 -9 -9 -136 39 -130 49 3 5
11 7 18 5 6 -3 35 -15 64 -28z m606 -254 c47 -44 20 -40 -34 5 -27 23 -50 44
-50 46 0 9 56 -25 84 -51z m301 -237 l50 -52 -52 43 c-55 45 -70 61 -56 61 5
0 31 -23 58 -52z m-595 -7063 c0 -2 -18 -14 -40 -25 -22 -11 -40 -18 -40 -15
0 2 17 13 38 24 42 23 42 23 42 16z m-130 -71 c0 -9 -302 -151 -445 -209 -335
-135 -679 -218 -990 -239 -61 -4 -43 1 75 19 455 70 875 198 1255 384 116 57
105 52 105 45z"/>
<path d="M6558 9473 c7 -3 16 -2 19 1 4 3 -2 6 -13 5 -11 0 -14 -3 -6 -6z"/>
<path d="M5470 5515 l0 -1865 290 0 290 0 -6 1198 -7 1197 304 -295 c167 -163
529 -514 804 -780 275 -267 723 -702 997 -968 273 -265 501 -482 507 -482 8 0
10 518 9 1868 l-3 1867 -288 3 -287 2 6 -1217 7 -1218 -154 150 c-85 83 -458
450 -829 816 -1474 1453 -1614 1589 -1627 1589 -11 0 -13 -321 -13 -1865z"/>
<path d="M2440 5455 l0 -1805 285 0 285 0 0 624 0 623 353 6 c470 7 588 26
802 132 317 156 510 436 580 839 20 118 20 346 -1 466 -80 468 -398 777 -903
880 -157 32 -337 40 -883 40 l-518 0 0 -1805z m1303 1230 c155 -33 298 -143
370 -285 101 -203 101 -412 0 -619 -46 -94 -150 -202 -240 -249 -123 -65 -178
-72 -540 -72 l-323 0 0 620 0 620 333 0 c249 0 349 -4 400 -15z"/>
<path d="M9930 6575 c0 -39 35 -225 46 -244 l14 -26 -5 25 c-37 198 -55 279
-55 245z"/>
<path d="M1181 4644 c0 -11 3 -14 6 -6 3 7 2 16 -1 19 -3 4 -6 -2 -5 -13z"/>
</g>
</svg>
